<?xml version="1.0" encoding="UTF-8"?>
<svg version="1.1" xmlns="http://www.w3.org/2000/svg" width="874" height="532">
<path d="M0 0 C1.0089322 -0.00794881 2.0178644 -0.01589762 3.05737031 -0.02408731 C6.44361301 -0.04335986 9.82818976 -0.01968323 13.21438599 0.0038147 C15.6408348 -0.00104098 18.06727962 -0.00847947 20.49371338 -0.01831055 C26.40782806 -0.03519683 32.32149829 -0.02407478 38.23555063 0.00021534 C45.14115686 0.02751303 52.04664789 0.02417348 58.95229436 0.01994868 C71.29757037 0.01356572 83.64261591 0.03690506 95.98782349 0.07608032 C107.92213999 0.11394108 119.85618558 0.12829486 131.79055786 0.11709595 C144.80828422 0.1049164 157.82589136 0.10546195 170.84360802 0.12806761 C172.23892029 0.13048184 173.63423256 0.13289381 175.02954483 0.1353035 C175.71586108 0.13651057 176.40217733 0.13771765 177.10929104 0.13896131 C181.90106952 0.14665654 186.69280317 0.14595653 191.48458481 0.14213181 C197.97389032 0.13738502 204.46292752 0.15489228 210.95215988 0.18625259 C213.31617317 0.19463845 215.68022142 0.19650802 218.04424286 0.19087219 C266.67389703 0.09265443 309.24337875 16.81940549 344.06253052 50.7484436 C346.57309802 53.29554743 348.8392453 55.94756264 351.06253052 58.7484436 C351.70375854 59.54580933 351.70375854 59.54580933 352.35794067 60.35928345 C380.35795894 95.42800345 393.1898757 139.61534764 388.37503052 184.3109436 C384.02716403 218.25509787 370.09496624 247.82077062 348.06253052 273.7484436 C347.45538208 274.47934204 346.84823364 275.21024048 346.22268677 275.96328735 C342.19947783 280.71633011 337.87737585 284.8061916 333.06253052 288.7484436 C332.56334106 289.15997681 332.06415161 289.57151001 331.54983521 289.99551392 C295.65699736 319.43570675 256.04319282 328.77559401 210.4446106 329.0206604 C208.05353112 329.03676779 205.66245346 329.05314775 203.27137756 329.06977844 C181.54867553 329.21374233 159.82539945 329.28961192 138.10231495 329.34869671 C135.20274121 329.35672371 132.30316792 329.36489237 129.40359497 329.37319946 C128.68303178 329.37525707 127.96246859 329.37731467 127.22007015 329.37943462 C115.52868857 329.41390923 103.83785215 329.48663616 92.14676002 329.57410707 C80.11962827 329.66334299 68.09277989 329.71463027 56.06532401 329.72999889 C49.32148326 329.73964012 42.57863122 329.76626438 35.83512306 329.83630943 C29.49727881 329.90031623 23.1610525 329.91711747 16.82293129 329.8978138 C14.4997062 329.8989672 12.17641613 329.91721563 9.85348129 329.9539566 C-7.71249602 330.21743769 -7.71249602 330.21743769 -13.27297401 326.54624367 C-15.55017128 324.0502011 -17.24993226 321.66300573 -18.93746948 318.7484436 C-19.79598511 317.79711548 -20.65450073 316.84578735 -21.53903198 315.8656311 C-22.20676636 315.12570923 -22.87450073 314.38578735 -23.56246948 313.6234436 C-24.29981323 312.8087561 -25.03715698 311.9940686 -25.79684448 311.1546936 C-27.2056723 309.57104774 -28.5920089 307.96705546 -29.95309448 306.3421936 C-30.87348511 305.24391235 -30.87348511 305.24391235 -31.81246948 304.1234436 C-32.34614136 303.47117798 -32.87981323 302.81891235 -33.42965698 302.1468811 C-34.96132181 300.40843668 -34.96132181 300.40843668 -37.93746948 300.7484436 C-39.9712726 302.69899163 -41.82806721 304.64227414 -43.68746948 306.7484436 C-44.22388062 307.34350708 -44.76029175 307.93857056 -45.31295776 308.55166626 C-46.86334883 310.27624805 -48.40218932 312.01041031 -49.93746948 313.7484436 C-50.64129761 314.53992798 -51.34512573 315.33141235 -52.07028198 316.1468811 C-55.23575938 319.66481953 -55.23575938 319.66481953 -58.0689972 323.44265026 C-60.08738531 326.22998351 -61.69987695 328.37200749 -65.06971395 329.39700425 C-67.66721551 329.63697317 -70.18611672 329.65768279 -72.79432678 329.60368347 C-74.27648814 329.61477163 -74.27648814 329.61477163 -75.78859216 329.62608379 C-79.09843598 329.64229177 -82.40586086 329.60848514 -85.71554565 329.57485962 C-88.08951664 329.57615942 -90.46348763 329.58051295 -92.83744812 329.58769226 C-98.61853828 329.59715861 -104.39884385 329.5742551 -110.17980536 329.53667868 C-116.92721065 329.49435487 -123.67448079 329.49011109 -130.42199878 329.48765933 C-142.47964077 329.48209434 -154.53695466 329.44382809 -166.5944519 329.38638306 C-178.25820843 329.33085801 -189.92177768 329.29530917 -201.58566284 329.28384399 C-202.66042472 329.28278161 -202.66042472 329.28278161 -203.75689896 329.28169776 C-205.20061522 329.28028837 -206.64433149 329.27888397 -208.08804776 329.27748459 C-208.80046824 329.2767939 -209.51288872 329.2761032 -210.2468977 329.27539158 C-210.95767118 329.27471315 -211.66844466 329.27403472 -212.40075673 329.27333573 C-223.55596802 329.26204388 -234.7111491 329.23505749 -245.86632469 329.20536323 C-249.22350692 329.19647524 -252.5806878 329.18828695 -255.93787551 329.18175244 C-263.60407329 329.16657529 -271.27011876 329.14224906 -278.93623161 329.10271263 C-281.24871315 329.09217611 -283.56121196 329.08481797 -285.87371445 329.08106232 C-302.90739471 329.04981916 -320.02104357 328.72873228 -336.62496948 324.4984436 C-337.4959729 324.28228394 -338.36697632 324.06612427 -339.26437378 323.84341431 C-364.63132381 317.32566265 -388.75777168 304.62708786 -407.93746948 286.7484436 C-408.57716675 286.15257446 -409.21686401 285.55670532 -409.87594604 284.94277954 C-437.27156162 259.12237904 -456.52990176 224.52759553 -460.93746948 186.7484436 C-461.04703979 185.95953735 -461.15661011 185.1706311 -461.26950073 184.3578186 C-465.97829936 144.42720625 -455.66225361 102.30601606 -431.93746948 69.7484436 C-431.35255737 68.94140991 -431.35255737 68.94140991 -430.75582886 68.11807251 C-415.42745152 47.18337133 -396.0548126 30.51545882 -372.93746948 18.7484436 C-372.32725952 18.43181763 -371.71704956 18.11519165 -371.08834839 17.78897095 C-345.87123251 4.82500399 -319.23072822 1.14668419 -291.17453003 1.13565063 C-288.67359451 1.1203656 -286.17266822 1.10350362 -283.67175293 1.08520508 C-276.95154744 1.04176435 -270.23157963 1.02373653 -263.51126838 1.01355219 C-259.30556199 1.006984 -255.09989117 0.99390948 -250.89420509 0.97954941 C-239.21390715 0.94053506 -227.53364164 0.90764469 -215.85327435 0.90179634 C-215.11057019 0.9014212 -214.36786604 0.90104606 -213.6026557 0.90065955 C-212.09767266 0.89992715 -210.59268963 0.89919975 -209.08770659 0.89847733 C-208.3408261 0.89811171 -207.59394561 0.89774609 -206.82443237 0.89736938 C-206.07662743 0.89700829 -205.32882249 0.89664719 -204.5583568 0.89627515 C-192.39875035 0.88916742 -180.23984658 0.83492086 -168.08048441 0.76037361 C-155.55125939 0.68417958 -143.02238392 0.64548144 -130.49292213 0.64487731 C-123.47544846 0.64371062 -116.45881984 0.62688073 -109.44156456 0.56888199 C-102.85577957 0.5146883 -96.27137774 0.51206391 -89.68535233 0.54419327 C-87.27185347 0.54782619 -84.85825872 0.53440424 -82.44496727 0.50255585 C-63.24918694 0.26467237 -63.24918694 0.26467237 -58.55014992 3.95357895 C-56.27045675 6.45099288 -54.59956654 8.8174301 -52.93746948 11.7484436 C-51.64969604 13.17543579 -51.64969604 13.17543579 -50.33590698 14.6312561 C-45.82389292 19.63105547 -41.35419086 24.66424344 -36.93746948 29.7484436 C-32.75664149 26.48535834 -29.30130216 23.02719635 -25.86325073 18.99453735 C-23.02436175 15.68345994 -20.0804966 12.46910523 -17.14840698 9.2406311 C-14.82977843 6.75220395 -14.82977843 6.75220395 -12.92037773 3.63945961 C-9.36442285 -0.59077826 -5.19862488 -0.08135127 0 0 Z M-351.29293823 110.86172485 C-367.28966605 129.21426532 -372.39833227 150.14577473 -371.15621948 173.96328735 C-369.78867089 191.37511143 -361.66727363 207.05892821 -349.93746948 219.7484436 C-349.35223511 220.40199829 -348.76700073 221.05555298 -348.16403198 221.72891235 C-333.47851205 237.34520468 -312.26988841 245.16414548 -291.18436241 245.87496567 C-286.46733536 245.97564858 -281.74976582 246.02174585 -277.0319519 246.06826782 C-275.21760308 246.0892924 -273.40325681 246.11053857 -271.58891296 246.13198853 C-255.08181923 246.31909839 -238.57378313 246.42244918 -222.06586742 246.50413322 C-210.98192898 246.5601699 -199.89931862 246.6409318 -188.81613159 246.78408813 C-179.12425858 246.90927026 -169.43330073 246.98849255 -159.74062806 247.01226437 C-154.61855929 247.02630318 -149.49891229 247.06249444 -144.37758446 247.1534996 C-139.55767734 247.23828114 -134.74134577 247.26085554 -129.92078972 247.23713684 C-128.15989861 247.23910485 -126.39886176 247.26307483 -124.63863754 247.31157303 C-114.14387783 247.62879797 -114.14387783 247.62879797 -105.10643959 242.89474869 C-101.89544612 239.75558409 -99.22867025 236.61768443 -96.93746948 232.7484436 C-97.1149007 229.47846214 -98.40144642 227.89727384 -100.63278198 225.5765686 C-101.18031128 224.99874634 -101.72784058 224.42092407 -102.29196167 223.82559204 C-102.87622925 223.22263306 -103.46049683 222.61967407 -104.06246948 221.9984436 C-105.2585878 220.73879163 -106.45390764 219.47838093 -107.64840698 218.2171936 C-108.22171753 217.61520142 -108.79502808 217.01320923 -109.38571167 216.39297485 C-111.75445231 213.88261661 -114.01072229 211.28239828 -116.26559448 208.6703186 C-118.29505021 206.33739286 -120.36511649 204.04333115 -122.43746948 201.7484436 C-125.10795293 198.7897461 -127.76045006 195.81917889 -130.37496948 192.8109436 C-133.18569473 189.58284848 -136.05326849 186.41105918 -138.93746948 183.2484436 C-147.39943445 173.96217764 -147.39943445 173.96217764 -150.93746948 169.7484436 C-151.51625854 169.09746704 -152.09504761 168.44649048 -152.69137573 167.77578735 C-153.93746948 165.7484436 -153.93746948 165.7484436 -153.69747925 163.83364868 C-152.82473628 161.43914253 -151.7879056 160.18747283 -150.02340698 158.3578186 C-149.43067993 157.73479858 -148.83795288 157.11177856 -148.2272644 156.46987915 C-147.59538208 155.81930542 -146.96349976 155.16873169 -146.31246948 154.4984436 C-145.02385444 153.14639303 -143.73608357 151.79353736 -142.44918823 150.43984985 C-141.83478882 149.7967688 -141.2203894 149.15368774 -140.58737183 148.49111938 C-138.16822342 145.9359431 -135.86284894 143.29217967 -133.56637573 140.62734985 C-129.32775481 135.73819719 -124.94587684 130.97251886 -120.60934448 126.1703186 C-116.62708728 121.75461844 -112.66438905 117.32643049 -108.77731323 112.8265686 C-107.38084201 111.24923805 -105.94996328 109.70228936 -104.50387573 108.1703186 C-103.67758667 107.28859985 -102.85129761 106.4068811 -101.99996948 105.4984436 C-101.22782104 104.68891235 -100.45567261 103.8793811 -99.66012573 103.0453186 C-97.53746948 100.6936259 -97.53746948 100.6936259 -97.93746948 96.7484436 C-99.31392329 94.70675984 -99.31392329 94.70675984 -101.18746948 92.8109436 C-103.21278092 90.63416657 -104.98908271 88.66784074 -106.59766769 86.15576077 C-109.2013622 83.47693621 -110.52233803 83.15801648 -114.19505429 83.09371287 C-115.2351081 83.11351282 -115.2351081 83.11351282 -116.2961731 83.13371277 C-117.03967538 83.12802951 -117.78317766 83.12234626 -118.54921031 83.11649078 C-121.04280484 83.10356344 -123.53478366 83.12639792 -126.02828979 83.14907837 C-127.81570781 83.14721454 -129.60312469 83.14317839 -131.39053345 83.13713074 C-136.25094184 83.12713585 -141.11076914 83.14836841 -145.97109318 83.17561078 C-151.06719399 83.19944514 -156.16328331 83.19649599 -161.25942993 83.19691467 C-169.83092055 83.20154779 -178.4021896 83.22520789 -186.97360229 83.26138306 C-196.85043799 83.30295983 -206.72707353 83.32068851 -216.60399175 83.3240028 C-227.14591704 83.32762123 -237.68777131 83.3465392 -248.22966671 83.37112308 C-251.25044471 83.37731878 -254.27121728 83.38097607 -257.29199982 83.38415718 C-262.0690839 83.3901183 -266.84602897 83.40659623 -271.6230545 83.43076134 C-273.3643384 83.43811917 -275.10563971 83.44226786 -276.84693909 83.44274139 C-305.7354168 83.45819494 -330.50611736 89.19864455 -351.29293823 110.86172485 Z M26.06253052 94.7484436 C25.34284864 96.39291319 24.6551802 98.05404442 24.06253052 99.7484436 C24.48663208 100.1609436 24.91073364 100.5734436 25.34768677 100.9984436 C29.13227053 104.724803 32.7110436 108.55961235 36.17971802 112.58047485 C38.27828371 114.99687311 40.41692752 117.37373385 42.56253052 119.7484436 C45.23301396 122.70714111 47.8855111 125.67770832 50.50003052 128.6859436 C54.15311008 132.88147582 57.90758601 136.98217914 61.65628052 141.0921936 C64.20769288 143.90868777 66.71343538 146.75851297 69.18753052 149.64297485 C70.6664446 151.30367212 72.19915625 152.91645871 73.75003052 154.51016235 C74.44709106 155.23622681 74.44709106 155.23622681 75.15823364 155.97695923 C76.50171267 157.37275733 77.85992697 158.75432736 79.21878052 160.13516235 C81.06253052 162.7484436 81.06253052 162.7484436 81.25784302 165.1234436 C79.42524714 169.14796789 76.51543184 171.93281005 73.43753052 175.0609436 C72.14894439 176.40390181 70.86117385 177.74764309 69.57424927 179.0921936 C68.95984985 179.72899048 68.34545044 180.36578735 67.71243286 181.0218811 C65.28353394 183.56363505 62.98578391 186.20717463 60.69143677 188.86953735 C56.45281585 193.75869002 52.07093787 198.52436834 47.73440552 203.3265686 C43.75214831 207.74226877 39.78945008 212.17045672 35.90237427 216.6703186 C34.50590304 218.24764916 33.07502431 219.79459785 31.62893677 221.3265686 C30.80264771 222.20828735 29.97635864 223.0900061 29.12503052 223.9984436 C28.35288208 224.80797485 27.58073364 225.6175061 26.78518677 226.4515686 C24.66253052 228.80326131 24.66253052 228.80326131 25.06253052 232.7484436 C28.11654325 237.9283692 32.16541316 243.37873402 38.03295302 245.44098282 C43.56289733 246.53042709 49.16648789 246.29656413 54.77420044 246.17422485 C56.65133182 246.17739328 58.5284605 246.1857975 60.4055481 246.19900513 C65.47938989 246.21945057 70.54995696 246.16558856 75.62327361 246.09689713 C80.95281941 246.03644522 86.28233612 246.04144159 91.61216736 246.03823853 C100.56599259 246.02349127 109.51858714 245.96376547 118.47195435 245.8734436 C129.92350666 245.75814673 141.37406675 245.71655932 152.82613659 245.69871521 C162.71605875 245.68272 172.60576997 245.63271529 182.49553895 245.57732773 C185.65177249 245.56102741 188.80799882 245.54927629 191.96425438 245.53814697 C196.94931155 245.51837834 201.93378855 245.47724444 206.91855621 245.4203949 C208.73559374 245.40250717 210.55270854 245.39099752 212.36982918 245.38676453 C226.66061555 245.34604976 240.55576142 243.93773446 253.37503052 236.9984436 C254.03253296 236.65482788 254.6900354 236.31121216 255.36746216 235.95718384 C274.41432743 225.74661304 288.15040166 210.26712533 295.06253052 189.7484436 C301.54307627 167.91063818 299.70286271 147.00750716 289.50003052 126.62734985 C285.55159385 119.45252859 280.83759504 113.53303794 275.06253052 107.7484436 C274.30198364 106.97629517 273.54143677 106.20414673 272.75784302 105.40859985 C252.8689848 86.33485878 227.82211372 83.50393628 201.51419067 83.34683228 C199.71526457 83.32933869 197.91634486 83.31117606 196.11743164 83.29240417 C190.27889054 83.23551675 184.4403118 83.19934823 178.60159302 83.16641235 C177.10464566 83.1574932 177.10464566 83.1574932 175.57745695 83.14839387 C166.14990994 83.09257751 156.72235537 83.04396577 147.29468727 83.01424694 C135.28999777 82.97601685 123.28682926 82.9005171 111.28273165 82.77440852 C102.80674388 82.68841393 94.33116513 82.64467699 85.85475385 82.63212949 C80.80472728 82.62354092 75.75638594 82.59665585 70.7068367 82.52428246 C65.96338782 82.45719951 61.22260826 82.44265266 56.47877884 82.46767235 C54.74452335 82.46783872 53.0101442 82.44934565 51.27632904 82.41026688 C39.26273635 82.1541766 32.71318799 83.96860487 26.06253052 94.7484436 Z " fill="#5A5B9C" transform="translate(467.9374694824219,100.25155639648438)"/>
<path d="M0 0 C2.50093552 -0.01528503 5.00186181 -0.03214701 7.5027771 -0.05044556 C14.22298258 -0.09388628 20.9429504 -0.11191411 27.66326165 -0.12209845 C31.86896804 -0.12866664 36.07463886 -0.14174116 40.28032494 -0.15610123 C51.96062287 -0.19511557 63.64088839 -0.22800595 75.32125568 -0.23385429 C76.06395984 -0.23422943 76.80666399 -0.23460457 77.57187433 -0.23499108 C79.07685737 -0.23572348 80.5818404 -0.23645088 82.08682344 -0.2371733 C82.83370393 -0.23753893 83.58058442 -0.23790455 84.35009766 -0.23828125 C85.0979026 -0.23864235 85.84570753 -0.23900345 86.61617323 -0.23937549 C98.77577968 -0.24648322 110.93468345 -0.30072977 123.09404562 -0.37527703 C135.62327064 -0.45147105 148.15214611 -0.4901692 160.6816079 -0.49077332 C167.69908156 -0.49194002 174.71571019 -0.50876991 181.73296547 -0.56676865 C188.31875046 -0.62096234 194.90315229 -0.62358673 201.4891777 -0.59145737 C203.90267656 -0.58782444 206.31627131 -0.60124639 208.72956276 -0.63309479 C227.9262728 -0.87098978 227.9262728 -0.87098978 232.6182003 2.81422043 C234.89624572 5.31204345 236.56511981 7.68838516 238.23706055 10.61279297 C239.12971438 11.63867932 240.05074188 12.64158038 241.0144043 13.60107422 C241.72725586 14.36806641 242.44010742 15.13505859 243.17456055 15.92529297 C243.90545898 16.70517578 244.63635742 17.48505859 245.3894043 18.28857422 C247.28301044 20.67059464 248.14353434 22.79953323 249.23706055 25.61279297 C250.65015099 26.828708 252.0702308 28.03859205 253.54174805 29.18310547 C256.09512115 31.33641089 258.16242481 33.8467911 260.3269043 36.38232422 C262.38515624 38.78572271 264.49181934 41.13893445 266.61206055 43.48779297 C267.3700293 44.32826172 268.12799805 45.16873047 268.90893555 46.03466797 C269.6772168 46.88544922 270.44549805 47.73623047 271.23706055 48.61279297 C276.00739992 53.89538355 280.75600461 59.19213432 285.43237305 64.55810547 C288.99344228 68.612483 292.62054094 72.60792227 296.23706055 76.61279297 C301.05087918 81.94353173 305.8535135 87.27740108 310.53393555 92.72607422 C311.8193475 94.15005122 313.15403309 95.52976551 314.51049805 96.88623047 C320.25532193 102.63105436 325.72371407 108.64682096 331.23706055 114.61279297 C332.01694336 115.45326172 332.79682617 116.29373047 333.6003418 117.15966797 C334.20233398 117.82482422 334.80432617 118.48998047 335.42456055 119.17529297 C335.91311523 119.71283203 336.40166992 120.25037109 336.9050293 120.80419922 C338.23706055 122.61279297 338.23706055 122.61279297 339.4909668 125.36669922 C341.74483636 129.55677887 344.69136947 132.59195778 347.98706055 135.98779297 C349.25744931 137.32161218 350.5269912 138.65623853 351.7956543 139.99169922 C352.39748535 140.62221191 352.99931641 141.25272461 353.61938477 141.90234375 C356.01766935 144.43816955 358.31006029 147.05462172 360.5690918 149.71435547 C361.89837465 151.22730973 363.28360772 152.69105369 364.6862793 154.13623047 C365.52803711 155.01537109 366.36979492 155.89451172 367.23706055 156.80029297 C368.02081055 157.59822266 368.80456055 158.39615234 369.61206055 159.21826172 C371.23706055 161.61279297 371.23706055 161.61279297 371.16674805 164.25732422 C370.00862718 167.19155483 368.17656137 168.49423338 365.70581055 170.37060547 C364.04846102 171.63069783 364.04846102 171.63069783 362.86206055 173.98779297 C361.26340952 176.57022924 359.92306367 177.8271211 357.61206055 179.73779297 C353.24798129 183.40136504 349.8293493 187.59346177 346.31518555 192.06201172 C344.23706055 194.61279297 344.23706055 194.61279297 342.03393555 196.75732422 C340.00654085 198.58300405 340.00654085 198.58300405 339.23706055 201.61279297 C337.78299805 202.81935547 337.78299805 202.81935547 336.29956055 204.05029297 C333.43731912 206.44522968 332.76382111 207.4574878 331.23706055 210.61279297 C330.47393555 211.21091797 329.71081055 211.80904297 328.92456055 212.42529297 C326.12799098 214.70157052 324.50385543 216.93014747 322.4909668 219.87060547 C319.64039742 223.83120966 316.62425866 226.56296045 312.23706055 228.61279297 C300.26872423 215.72079195 300.26872423 215.72079195 294.9362793 209.56201172 C291.42301386 205.53185205 287.82022999 201.58073228 284.23706055 197.61279297 C275.67185993 188.12783927 275.67185993 188.12783927 271.73706055 183.61279297 C264.29826222 175.00262763 264.29826222 175.00262763 256.36206055 166.86279297 C254.23706055 164.61279297 254.23706055 164.61279297 252.86206055 161.73779297 C251.04499925 158.24344433 248.93910502 156.14801122 246.11987305 153.45263672 C243.63179979 151.02134522 241.39090184 148.413322 239.11987305 145.78076172 C237.02130735 143.36436346 234.88266354 140.98750273 232.73706055 138.61279297 C230.0665771 135.65409546 227.41407996 132.68352825 224.79956055 129.67529297 C221.9888353 126.44719785 219.12126154 123.27540854 216.23706055 120.11279297 C212.78928245 116.33219768 209.38336391 112.52355399 206.03393555 108.65576172 C203.13130008 105.3555914 200.13964309 102.13572213 197.1550293 98.90966797 C195.23706055 96.61279297 195.23706055 96.61279297 194.2253418 94.37841797 C193.89920898 93.79576172 193.57307617 93.21310547 193.23706055 92.61279297 C192.61155084 92.49395437 191.98604113 92.37511578 191.34157658 92.25267601 C188.51668658 91.39376157 188.10532098 90.08539381 186.57652283 87.60903931 C184.01129896 84.58179465 182.64586466 83.69860752 178.71310616 82.87305832 C174.08083523 82.50408553 169.44785398 82.59963023 164.80566406 82.67285156 C163.01780182 82.67183326 161.22993867 82.66731727 159.4420929 82.65957642 C154.59387794 82.64874821 149.74719512 82.68754136 144.89925504 82.73577833 C139.81121749 82.77847175 134.72318271 82.77718594 129.63499451 82.78115845 C121.0812662 82.79405251 112.5281099 82.83651889 103.97460938 82.89941406 C93.03648141 82.97974409 82.09872745 83.01476043 71.16034031 83.03403282 C61.71801122 83.05072361 52.27575944 83.08517662 42.83349872 83.12410784 C40.81693327 83.13217577 38.8003654 83.13965935 36.7837956 83.14655256 C31.02127816 83.16630325 25.2589766 83.19563148 19.49659538 83.24023056 C17.76015536 83.25232918 16.02368994 83.26130907 14.28721619 83.266716 C-13.07143264 83.35978417 -36.71748683 88.07948174 -57.1027832 107.88623047 C-73.76029363 125.48339533 -79.48422493 145.99738471 -79.06762695 169.58544922 C-78.26653444 190.80115967 -68.1883306 208.8615713 -53.01293945 223.30029297 C-36.51422871 237.55497504 -17.06052923 243.73730766 4.4229126 243.77342224 C5.19478244 243.77851006 5.96665227 243.78359788 6.76191211 243.78883988 C9.32035849 243.80440078 11.87877698 243.81304515 14.43725586 243.8215332 C16.28266573 243.83108396 18.12807386 243.84097564 19.97348022 243.85118103 C26.00402747 243.88239124 32.03458787 243.90279641 38.06518555 243.92138672 C39.60629706 243.9263327 39.60629706 243.9263327 41.17854214 243.9313786 C50.87023236 243.9621235 60.56192589 243.98881855 70.25365067 244.00579739 C82.63631044 244.02775062 95.01853943 244.06986737 107.40102696 244.13923496 C116.11883412 244.18641588 124.83652467 244.21072198 133.55445552 244.21799427 C138.75873388 244.22295429 143.9625248 244.23807192 149.16666412 244.27773857 C154.05555828 244.3145197 158.94368464 244.3230428 163.83269119 244.30973244 C165.62701867 244.30978651 167.42137956 244.32013168 169.21557999 244.34148407 C171.66436724 244.36907221 174.11033467 244.35970277 176.55914307 244.34104919 C177.62533556 244.36624159 177.62533556 244.36624159 178.71306729 244.39194292 C181.49217503 244.33898556 183.61982438 244.14711849 185.7652297 242.28989613 C187.31685196 240.48934135 187.31685196 240.48934135 189.23706055 237.61279297 C191.21842922 235.43182696 192.70008452 234.26959364 195.23706055 232.61279297 C201.28879475 233.55569773 204.31622506 237.37333403 208.17456055 241.73779297 C208.79572754 242.42284912 209.41689453 243.10790527 210.05688477 243.8137207 C211.79529904 245.73667856 213.51851693 247.67208431 215.23706055 249.61279297 C216.24833008 250.74007812 216.24833008 250.74007812 217.2800293 251.89013672 C219.37792239 254.25738893 221.43059257 256.6609954 223.4753418 259.07421875 C224.9355427 260.79715299 226.39832109 262.51786404 227.86206055 264.23779297 C228.61688721 265.12700439 228.61688721 265.12700439 229.38696289 266.03417969 C233.82226339 271.21863948 238.46159664 276.19657698 243.22387695 281.08203125 C247.23706055 285.28731568 247.23706055 285.28731568 247.23706055 288.61279297 C248.54282558 290.49948792 248.54282558 290.49948792 250.23706055 292.30029297 C251.07237305 293.23421875 251.07237305 293.23421875 251.92456055 294.18701172 C252.35768555 294.65751953 252.79081055 295.12802734 253.23706055 295.61279297 C251.94164726 298.44449266 250.55303985 300.56740015 248.40893555 302.81982422 C247.85592773 303.40699219 247.30291992 303.99416016 246.7331543 304.59912109 C245.86883789 305.50307617 245.86883789 305.50307617 244.98706055 306.42529297 C236.16825854 315.06123917 236.16825854 315.06123917 230.23706055 325.61279297 C227.87172919 327.97812433 227.4389611 327.86304972 224.23339939 327.86447525 C223.39118605 327.86969074 222.54897271 327.87490624 221.68123776 327.88027978 C220.28532962 327.87358761 220.28532962 327.87358761 218.86122131 327.86676025 C217.87653144 327.86988024 216.89184156 327.87300022 215.8773126 327.87621474 C212.55584399 327.88423367 209.23455612 327.87785561 205.91308594 327.87158203 C203.53970736 327.87429046 201.16632962 327.87785055 198.79295349 327.88220215 C192.99823214 327.89040185 187.20356878 327.88916308 181.40884561 327.88337687 C176.6908022 327.87886133 171.97277327 327.87824704 167.25472832 327.8804245 C166.58329689 327.88073097 165.91186546 327.88103743 165.22008763 327.88135318 C163.85589159 327.88199266 162.49169555 327.88264109 161.12749951 327.88329837 C148.31469643 327.88900979 135.5019219 327.88243493 122.6891235 327.87169763 C111.7289325 327.86279599 100.76878395 327.86428448 89.80859375 327.87353516 C77.06820284 327.88428343 64.32783715 327.88842398 51.58744234 327.88231063 C50.22304849 327.8816736 48.85865464 327.88104485 47.49426079 327.8804245 C46.82308139 327.88011595 46.15190199 327.8798074 45.46038382 327.8794895 C40.76445036 327.87777356 36.06853789 327.88075366 31.37260628 327.88538361 C25.01886565 327.89120913 18.66520412 327.88706591 12.31147194 327.87559509 C9.99253215 327.87297421 7.67358559 327.87366895 5.35464859 327.87812042 C-11.70901406 327.90782611 -28.81551275 327.60097991 -45.45043945 323.36279297 C-46.32144287 323.1466333 -47.19244629 322.93047363 -48.08984375 322.70776367 C-73.45679379 316.19001201 -97.58324165 303.49143722 -116.76293945 285.61279297 C-117.40263672 285.01692383 -118.04233398 284.42105469 -118.70141602 283.80712891 C-146.09703159 257.98672841 -165.35537173 223.3919449 -169.76293945 185.61279297 C-169.87250977 184.82388672 -169.98208008 184.03498047 -170.0949707 183.22216797 C-174.80376933 143.29155562 -164.48772358 101.17036543 -140.76293945 68.61279297 C-140.17802734 67.80575928 -140.17802734 67.80575928 -139.58129883 66.98242188 C-124.25292149 46.0477207 -104.88028257 29.37980819 -81.76293945 17.61279297 C-81.15272949 17.29616699 -80.54251953 16.97954102 -79.91381836 16.65332031 C-54.69670248 3.68935336 -28.0561982 0.01103356 0 0 Z " fill="#5DBF6E" transform="translate(176.762939453125,101.38720703125)"/>
<path d="M0 0 C8.328062 6.69865857 15.18528573 14.80375861 22.125 22.89453125 C23.60391408 24.55522852 25.13662574 26.16801511 26.6875 27.76171875 C27.15220703 28.24576172 27.61691406 28.72980469 28.09570312 29.22851562 C29.43918215 30.62431373 30.79739646 32.00588375 32.15625 33.38671875 C34 36 34 36 34.1953125 38.375 C32.36271662 42.39952428 29.45290132 45.18436645 26.375 48.3125 C25.08641388 49.65545821 23.79864333 50.99919949 22.51171875 52.34375 C21.89731934 52.98054688 21.28291992 53.61734375 20.64990234 54.2734375 C18.22100343 56.81519144 15.92325339 59.45873103 13.62890625 62.12109375 C9.39028533 67.01024642 5.00840736 71.77592474 0.671875 76.578125 C-2.74305638 80.36474959 -6.14986526 84.15583617 -9.5 88 C-20.38499825 100.4872293 -20.38499825 100.4872293 -25 105 C-25.33 104.01 -25.66 103.02 -26 102 C-21 97 -21 97 -18.5625 94.625 C-15.98325403 91.98284559 -13.65100229 89.22511893 -11.33203125 86.35546875 C-10.89246094 85.90816406 -10.45289063 85.46085937 -10 85 C-9.34 85 -8.68 85 -8 85 C-7.7525 84.2575 -7.505 83.515 -7.25 82.75 C-5.89534961 79.76976913 -4.4898459 78.10080748 -2 76 C-1.34 76 -0.68 76 0 76 C0.05929687 75.45859375 0.11859375 74.9171875 0.1796875 74.359375 C1.35743236 70.97195646 3.68360324 68.78398065 6.125 66.25 C7.12972387 65.18436404 8.13362964 64.11795616 9.13671875 63.05078125 C9.6270459 62.53209473 10.11737305 62.0134082 10.62255859 61.47900391 C12.99137853 58.93552443 15.22842868 56.28076896 17.46484375 53.62109375 C19 52 19 52 21.1015625 50.4375 C23.17439529 49.05714738 23.17439529 49.05714738 24.4375 46.5625 C26.22486349 43.63122388 28.2452606 42.01021523 31 40 C30.76385781 34.38625606 27.08911527 31.46223069 23.375 27.6875 C22.08641388 26.34454179 20.79864333 25.00080051 19.51171875 23.65625 C18.89731934 23.01945312 18.28291992 22.38265625 17.64990234 21.7265625 C15.23163353 19.19593258 12.94134101 16.56698118 10.6640625 13.91015625 C7.75788069 10.57418699 4.73072697 7.34565881 1.72265625 4.1015625 C0 2 0 2 0 0 Z " fill="#185122" transform="translate(516,227)"/>
<path d="M0 0 C2.92700833 1.30886976 4.87184315 2.66226088 7.015625 5.0390625 C7.54414063 5.61914062 8.07265625 6.19921875 8.6171875 6.796875 C9.15601563 7.40015625 9.69484375 8.0034375 10.25 8.625 C10.80429687 9.23601562 11.35859375 9.84703125 11.9296875 10.4765625 C13.2917841 11.97956565 14.64661601 13.4891468 16 15 C15.67 15.66 15.34 16.32 15 17 C13.02 15.35 11.04 13.7 9 12 C6.97765725 14.16527525 4.9567524 16.33184491 2.9375 18.5 C2.34275879 19.1384082 1.74801758 19.77681641 1.13525391 20.43457031 C-2.54532338 24.39765025 -6.15546156 28.40288165 -9.6328125 32.546875 C-11 34 -11 34 -14 36 C-12.38380881 32.07629885 -9.68640782 29.28646353 -6.8125 26.25 C-5.82105847 25.18411075 -4.83017377 24.1177033 -3.83984375 23.05078125 C-3.35628418 22.53209473 -2.87272461 22.0134082 -2.37451172 21.47900391 C-0.52016055 19.48368253 1.31133246 17.46986342 3.125 15.4375 C3.66382813 14.83808594 4.20265625 14.23867188 4.7578125 13.62109375 C6.21292728 11.90456703 6.21292728 11.90456703 7 9 C5.56672891 6.89540374 5.56672891 6.89540374 3.5625 4.875 C0 1.06849315 0 1.06849315 0 0 Z " fill="#185322" transform="translate(422,388)"/>
<path d="M0 0 C2 0 2 0 3.33984375 1.328125 C3.86707031 1.96234375 4.39429688 2.5965625 4.9375 3.25 C8.1891834 7.08037282 11.53443724 10.80471355 14.9375 14.5 C15.43435303 15.04043945 15.93120605 15.58087891 16.44311523 16.13769531 C17.6279431 17.42586684 18.81385389 18.7130422 20 20 C19.67 20.66 19.34 21.32 19 22 C14.4103663 17.51286432 10.01145421 13.01431776 6 8 C-0.53439431 10.76455144 -4.95224058 15.89890074 -9.38671875 21.23046875 C-11 23 -11 23 -14 25 C-12.62736637 21.94839391 -11.04043427 19.75173068 -8.7421875 17.328125 C-7.80439453 16.33232422 -7.80439453 16.33232422 -6.84765625 15.31640625 C-6.19667969 14.63449219 -5.54570312 13.95257813 -4.875 13.25 C-4.21628906 12.55261719 -3.55757813 11.85523438 -2.87890625 11.13671875 C-1.25672226 9.42049511 0.36965379 7.70846565 2 6 C1.34 4.02 0.68 2.04 0 0 Z " fill="#314052" transform="translate(368,194)"/>
<path d="M0 0 C4.06302415 4.00936157 7.98409337 8.13633013 11.875 12.3125 C12.49342773 12.97604492 13.11185547 13.63958984 13.74902344 14.32324219 C24.83086836 26.24630254 24.83086836 26.24630254 28 31 C25 31 25 31 23.52734375 29.63671875 C23.00269531 28.99347656 22.47804688 28.35023438 21.9375 27.6875 C19.03192081 24.21677644 16.05830722 20.83760468 13 17.5 C12.15566406 16.57058594 11.31132812 15.64117187 10.44140625 14.68359375 C8.91328413 13.00388191 7.38020632 11.32865025 5.83984375 9.66015625 C5.21207031 8.96792969 4.58429688 8.27570313 3.9375 7.5625 C3.38964844 6.96566406 2.84179688 6.36882812 2.27734375 5.75390625 C0.88231088 3.8384024 0.41232309 2.31613588 0 0 Z " fill="#389354" transform="translate(396,357)"/>
<path d="M0 0 C0.66 0.33 1.32 0.66 2 1 C-11.97116683 17.08256504 -11.97116683 17.08256504 -17 22 C-17.33 21.01 -17.66 20.02 -18 19 C-13 14 -13 14 -10.5625 11.625 C-7.98325403 8.98284559 -5.65100229 6.22511893 -3.33203125 3.35546875 C-2.89246094 2.90816406 -2.45289063 2.46085937 -2 2 C-1.34 2 -0.68 2 0 2 C0 1.34 0 0.68 0 0 Z " fill="#174F21" transform="translate(508,310)"/>
<path d="M0 0 C0.99 0.33 1.98 0.66 3 1 C2.25556641 1.72703125 2.25556641 1.72703125 1.49609375 2.46875 C-2.74935409 6.65780669 -6.7531151 10.93399965 -10.5546875 15.53125 C-11.27011719 16.25828125 -11.27011719 16.25828125 -12 17 C-12.66 17 -13.32 17 -14 17 C-12.71480435 14.13302508 -11.42870746 12.02392288 -9 10 C-8.34 10 -7.68 10 -7 10 C-6.89816406 9.40703125 -6.79632812 8.8140625 -6.69140625 8.203125 C-5.88644348 5.63815889 -4.88433098 4.57256517 -2.9375 2.75 C-2.38964844 2.22921875 -1.84179688 1.7084375 -1.27734375 1.171875 C-0.85582031 0.78515625 -0.43429687 0.3984375 0 0 Z " fill="#1C5F28" transform="translate(523,293)"/>
<path d="M0 0 C1.9375 0.8125 1.9375 0.8125 4 2 C4.33 2.99 4.66 3.98 5 5 C4.29875 5.061875 3.5975 5.12375 2.875 5.1875 C-2.88803315 6.81618328 -6.53376688 11.33391695 -10 16 C-10.66 15.67 -11.32 15.34 -12 15 C-11.21753906 14.16855469 -10.43507813 13.33710938 -9.62890625 12.48046875 C-8.60652057 11.38304559 -7.58439887 10.28537648 -6.5625 9.1875 C-6.04623047 8.64029297 -5.52996094 8.09308594 -4.99804688 7.52929688 C-2.68923395 5.03940058 -1.08641486 3.25924458 0 0 Z " fill="#113818" transform="translate(371,330)"/>
<path d="M0 0 C2.92700833 1.30886976 4.87184315 2.66226088 7.015625 5.0390625 C7.54414063 5.61914062 8.07265625 6.19921875 8.6171875 6.796875 C9.42542969 7.70179688 9.42542969 7.70179688 10.25 8.625 C10.80429687 9.23601562 11.35859375 9.84703125 11.9296875 10.4765625 C13.2917841 11.97956565 14.64661601 13.4891468 16 15 C15.67 15.66 15.34 16.32 15 17 C10.43891524 13.3870059 7.08654862 10.00233742 4 5 C2.68456721 3.31916921 1.35683751 1.6475884 0 0 Z " fill="#28603F" transform="translate(422,388)"/>
<path d="M0 0 C0.66 0 1.32 0 2 0 C0.56951306 3.18283344 -1.19017243 5.57915658 -3.5 8.1875 C-4.1084375 8.88230469 -4.716875 9.57710938 -5.34375 10.29296875 C-7 12 -7 12 -9 13 C-8.6875 11.125 -8.6875 11.125 -8 9 C-7.01 8.34 -6.02 7.68 -5 7 C-3.96986723 5.35178756 -2.96885372 3.68496298 -2 2 C-1.34 1.34 -0.68 0.68 0 0 Z " fill="#1E642A" transform="translate(544,269)"/>
<path d="M0 0 C0.66 0.33 1.32 0.66 2 1 C-1.3 4.63 -4.6 8.26 -8 12 C-8 8.24111186 -7.049166 7.58681685 -4.5625 4.875 C-3.92441406 4.17117188 -3.28632813 3.46734375 -2.62890625 2.7421875 C-1.76410115 1.81724008 -0.89538137 0.89538137 0 0 Z " fill="#13451C" transform="translate(429,399)"/>
<path d="M0 0 C4.32239956 3.34003602 7.17477391 6.32751069 10 11 C6.8510285 9.63088196 4.9521513 8.1247864 2.75 5.5 C2.22921875 4.8915625 1.7084375 4.283125 1.171875 3.65625 C0 2 0 2 0 0 Z " fill="#3A9357" transform="translate(386,346)"/>
<path d="M0 0 C1.9375 0.8125 1.9375 0.8125 4 2 C4.33 2.99 4.66 3.98 5 5 C3.35 5 1.7 5 0 5 C0 3.35 0 1.7 0 0 Z " fill="#2D7941" transform="translate(371,330)"/>
</svg>
